PathFileType	4	(x/y/z)	S08_M20_T01
DataRate	CameraRate	NumFrames	NumMarkers	Units	OrigDataRate	OrigDataStartFrame	OrigNumFrames
240	240	6	51	mm	240	64	504
Frame#	Time	Sternum			R.Acromium			L.Acromium			Top.Head			R.ASIS			L.ASIS			R.PSIS			L.PSIS			R.Great.Tro			L.Great.Tro			R.Iliac.Crest			L.Iliac.Crest			V.Sacral			R.Thigh.Upper.Post			R.Thigh.Lower.Ant			R.Thigh.Lower.Post			R.Thigh.Upper.Ant			R.Knee.Lat			R.Knee.Med			R.Shank.Upper.Post			R.Shank.Lower.Ant			R.Shank.Lower.Post			R.Shank.Upper.Ant			R.Ankle.Lat			R.Ankle.Med			R.Heel.Upper			R.Heel.Med			R.Heel.Lat			R.Toe.Lat			R.Toe.Med			R.Toe.Tip			L.Thigh.Upper.Post			L.Thigh.Lower.Ant			L.Thigh.Lower.Post			L.Thigh.Upper.Ant			L.Knee.Lat			L.Knee.Med			L.Shank.Upper.Post			L.Shank.Lower.Ant			L.Shank.Lower.Post			L.Shank.Upper.Ant			L.Ankle.Lat			L.Ankle.Med			L.Heel.Upper			L.Heel.Med			L.Heel.Lat			L.Toe.Lat			L.Toe.Med			L.Toe.Tip			Cervical.Spine			Back			
		X1	Y1	Z1	X2	Y2	Z2	X3	Y3	Z3	X4	Y4	Z4	X5	Y5	Z5	X6	Y6	Z6	X7	Y7	Z7	X8	Y8	Z8	X9	Y9	Z9	X10	Y10	Z10	X11	Y11	Z11	X12	Y12	Z12	X13	Y13	Z13	X14	Y14	Z14	X15	Y15	Z15	X16	Y16	Z16	X17	Y17	Z17	X18	Y18	Z18	X19	Y19	Z19	X20	Y20	Z20	X21	Y21	Z21	X22	Y22	Z22	X23	Y23	Z23	X24	Y24	Z24	X25	Y25	Z25	X26	Y26	Z26	X27	Y27	Z27	X28	Y28	Z28	X29	Y29	Z29	X30	Y30	Z30	X31	Y31	Z31	X32	Y32	Z32	X33	Y33	Z33	X34	Y34	Z34	X35	Y35	Z35	X36	Y36	Z36	X37	Y37	Z37	X38	Y38	Z38	X39	Y39	Z39	X40	Y40	Z40	X41	Y41	Z41	X42	Y42	Z42	X43	Y43	Z43	X44	Y44	Z44	X45	Y45	Z45	X46	Y46	Z46	X47	Y47	Z47	X48	Y48	Z48	X49	Y49	Z49	X50	Y50	Z50	X51	Y51	Z51	

64	0.2625	-1169.6	1223.7	286.86	-1293	1456.3	462.67	-1320.4	1481.7	127.48	-1287.2	1778.5	306.19	-1188.8	1002.6	402.44	-1175.3	1015.9	170.37	-1386.1	1031	316.79	-1383.7	1043.5	223.32	-1270.3	885.76	463.12	-1256.8	913.17	96.505	-1290.7	1069.6	446.2	-1271.6	1096	137.24	-1400.2	996.17	266.4	-1279	685.19	453.46	-1193.8	588.32	443.29	-1271.2	595.87	440.46	-1199.2	683.03	455.81	-1232.9	494.82	440.39	-1236.2	491.09	305.89	-1407.1	427.87	446.92	-1415.2	337.85	428	-1463.1	380.12	438.75	-1353.6	383.22	436.46	NaN	NaN	NaN	-1569	264.56	334.51	-1648.2	314.47	357.79	-1661.3	293.15	330.58	-1667.8	302.95	389.93	-1645.4	133.77	435.05	-1587	124.4	324.62	NaN	NaN	NaN	-1231.7	696.82	121	-1127.3	629	150.5	-1197.8	614.81	143.75	-1158.3	708.41	122.92	-1163.4	521.03	168.24	-1168.5	525.65	293.71	-1214	337.47	171.06	-1144.4	254.86	200.05	-1216.5	265.34	189.53	-1147.5	328.47	180.36	-1197	96.966	212.61	-1173.2	106.39	301.64	-1246.7	74.574	264.7	-1233.7	41.234	295.2	-1239.5	48.449	231.66	-1064.1	41.58	200.21	-1046.2	45.594	315.4	-982.2	64.379	267.09	-1374.8	1513.9	292.7	-1412.6	1227.9	302.02
65	0.26667	-1164.8	1224.6	286.73	-1288.1	1457.2	462.43	-1315.3	1482.5	127.2	-1281.9	1779.4	306.01	-1183.7	1003.9	402.03	-1170.3	1016.8	169.96	-1381.2	1031.7	316.51	-1379.1	1044.3	222.99	-1264.6	886.78	462.82	-1252.3	913.92	96.225	-1285.8	1070.6	445.89	-1267	1097	136.97	-1395.3	996.97	266.15	-1270.6	685.98	453.19	-1184.1	590.2	443.4	-1261.8	596.72	440.15	-1191	684.75	455.71	-1222.2	496.25	440.28	-1225.5	492.39	305.68	-1395.7	428.59	446.81	-1403.8	338.58	428.06	-1451.7	380.63	438.79	-1342.3	384.21	436.43	NaN	NaN	NaN	-1557.3	264.57	334.71	-1637.6	313.25	357.83	-1650.4	291.36	330.8	-1656.8	301.66	390.07	NaN	NaN	NaN	-1572.8	124.11	325.96	-1532.1	76.693	375.29	-1228.5	697.49	120.61	-1124.8	628.93	150.24	-1195.3	615.22	143.35	-1155.3	708.5	122.79	-1161.4	521.05	168.02	-1166.8	525.8	293.34	-1213.2	337.68	170.96	-1143.9	254.79	199.85	-1215.9	265.54	189.55	-1146.7	328.4	180.13	-1196.8	97.055	212.7	-1173	106.54	301.63	-1246.8	74.774	264.66	-1233.7	41.301	295.16	-1239.4	48.559	231.62	-1064	41.453	200.14	-1046.1	45.522	315.39	-982.1	64.104	267.03	-1369.5	1514.7	292.31	-1407.7	1228.8	301.52
66	0.27083	-1160	1225.5	286.6	-1283.2	1458.1	462.18	-1310.2	1483.4	126.91	-1276.6	1780.3	305.84	-1178.7	1005.1	401.61	-1165.4	1017.7	169.55	-1376.3	1032.5	316.26	-1374.5	1045.2	222.7	-1258.8	887.79	462.55	-1247.8	914.66	95.949	-1281	1071.6	445.59	-1262.5	1097.9	136.7	-1390.5	997.75	265.92	-1262.3	686.8	452.94	-1174.5	592.13	443.46	-1252.3	597.63	439.86	-1182.8	686.51	455.59	-1211.5	497.73	440.13	-1215	493.77	305.45	-1384.3	429.23	446.69	-1392.3	339.23	428.1	-1440.4	380.99	438.82	-1331	385.17	436.38	NaN	NaN	NaN	-1545.5	264.36	334.91	-1626.8	311.72	357.9	-1639.2	289.27	331.03	-1645.7	300.03	390.25	NaN	NaN	NaN	-1558.5	123.64	327.28	-1518.4	76.867	376.58	-1225.3	698.17	120.2	-1122.2	628.86	149.98	-1192.7	615.64	142.93	-1152.3	708.6	122.64	-1159.5	521.07	167.79	-1165	525.95	292.97	-1212.3	337.9	170.84	-1143.4	254.72	199.65	-1215.3	265.74	189.58	-1145.8	328.33	179.89	-1196.4	97.15	212.79	-1172.8	106.71	301.6	-1246.9	74.987	264.62	-1233.7	41.372	295.13	-1239.3	48.673	231.58	-1064	41.325	200.07	-1045.9	45.463	315.37	-982	63.828	266.95	-1364.1	1515.5	291.92	-1402.9	1229.7	301.04
67	0.275	-1155.2	1226.4	286.45	-1278.2	1458.9	461.92	-1305.2	1484.2	126.62	-1271.4	1781.1	305.67	-1173.6	1006.3	401.2	-1160.5	1018.7	169.14	-1371.4	1033.3	316.03	-1369.9	1046	222.43	-1253	888.81	462.3	-1243.4	915.39	95.676	-1276.1	1072.6	445.3	-1258	1098.9	136.44	-1385.6	998.51	265.73	-1254	687.66	452.73	-1165	594.1	443.49	-1242.6	598.58	439.6	-1174.7	688.3	455.47	-1200.9	499.26	439.95	-1204.5	495.21	305.21	-1373	429.78	446.54	-1380.8	339.79	428.13	-1429.1	381.22	438.84	-1319.7	386.09	436.31	NaN	NaN	NaN	-1533.6	263.94	335.09	-1616	309.89	357.99	-1628	286.88	331.29	-1634.5	298.07	390.47	NaN	NaN	NaN	-1543.9	122.99	328.6	-1504	77.018	377.93	-1222.1	698.83	119.78	-1119.7	628.79	149.72	-1190.2	616.05	142.5	-1149.2	708.72	122.46	-1157.6	521.09	167.55	-1163.3	526.11	292.61	-1211.5	338.13	170.72	-1142.9	254.65	199.44	-1214.8	265.95	189.6	-1145	328.26	179.65	-1196.1	97.249	212.88	-1172.6	106.88	301.57	-1246.9	75.212	264.58	-1233.6	41.448	295.09	-1239.3	48.79	231.53	-1063.9	41.196	200.01	-1045.8	45.416	315.33	-981.89	63.552	266.87	-1358.7	1516.3	291.52	-1398.1	1230.6	300.57
68	0.27917	-1150.4	1227.3	286.3	-1273.2	1459.8	461.66	-1300.1	1485	126.34	-1266.1	1782	305.52	-1168.6	1007.5	400.78	-1155.5	1019.6	168.73	-1366.5	1034.1	315.83	-1365.3	1046.7	222.2	-1247.3	889.83	462.07	-1239	916.1	95.405	-1271.3	1073.7	445.03	-1253.5	1099.8	136.18	-1380.8	999.25	265.56	-1245.7	688.55	452.55	-1155.6	596.11	443.47	-1232.9	599.59	439.37	-1166.6	690.13	455.32	-1190.4	500.83	439.75	-1194.2	496.72	304.96	-1361.6	430.24	446.38	-1369.2	340.26	428.16	-1417.7	381.3	438.84	-1308.5	386.96	436.21	NaN	NaN	NaN	-1521.6	263.3	335.25	-1605	307.77	358.11	-1616.6	284.2	331.57	-1623.3	295.77	390.73	NaN	NaN	NaN	-1529.1	122.17	329.89	-1489	77.135	379.31	-1218.9	699.5	119.35	-1117.2	628.72	149.46	-1187.7	616.46	142.06	-1146.2	708.85	122.26	-1155.7	521.13	167.31	-1161.6	526.27	292.26	-1210.7	338.37	170.59	-1142.4	254.6	199.24	-1214.3	266.17	189.62	-1144.2	328.2	179.41	-1195.8	97.355	212.98	-1172.4	107.05	301.53	-1247	75.448	264.54	-1233.6	41.528	295.06	-1239.2	48.91	231.48	-1063.8	41.069	199.94	-1045.7	45.382	315.29	-981.78	63.278	266.79	-1353.3	1517	291.13	-1393.3	1231.5	300.12
69	0.28333	-1145.7	1228.1	286.14	-1268.2	1460.6	461.4	-1295	1485.8	126.06	-1260.9	1782.8	305.36	-1163.7	1008.7	400.37	-1150.7	1020.5	168.31	-1361.7	1034.8	315.64	-1360.7	1047.5	221.99	-1241.5	890.84	461.86	-1234.7	916.79	95.137	-1266.4	1074.7	444.77	-1249	1100.6	135.92	-1376	999.96	265.43	-1237.4	689.47	452.4	-1146.3	598.15	443.4	-1223.2	600.64	439.17	-1158.5	691.98	455.16	-1180	502.45	439.51	-1183.9	498.28	304.7	-1350.3	430.61	446.21	-1357.7	340.63	428.16	-1406.4	381.24	438.83	-1297.2	387.79	436.09	NaN	NaN	NaN	-1509.5	262.44	335.4	-1593.9	305.36	358.25	-1605.1	281.23	331.87	-1612	293.16	391.03	NaN	NaN	NaN	-1514.1	121.19	331.16	-1473.6	77.211	380.72	-1215.7	700.15	118.92	-1114.8	628.63	149.2	-1185.2	616.87	141.62	-1143.1	708.98	122.05	-1153.8	521.17	167.06	-1159.9	526.43	291.91	-1209.8	338.63	170.46	-1141.9	254.55	199.03	-1213.7	266.39	189.64	-1143.4	328.13	179.16	-1195.4	97.465	213.08	-1172.2	107.23	301.48	-1247.1	75.693	264.49	-1233.6	41.614	295.02	-1239.2	49.032	231.44	-1063.7	40.946	199.87	-1045.5	45.357	315.25	-981.66	63.006	266.69	-1347.9	1517.8	290.74	-1388.6	1232.3	299.68
